<svg xmlns="http://www.w3.org/2000/svg" viewBox="0 0 900 480" width="900" height="480" role="img" aria-label="Escalation: bids over the course of the auction"><style>
  .bg   { fill: #ffffff; }
  .axis { stroke: #c8ccd4; stroke-width: 1; }
  .grid { stroke: #eceef2; stroke-width: 1; }
  .lbl  { font: 12px system-ui, sans-serif; fill: #4a4f58; }
  .ttl  { font: 600 15px system-ui, sans-serif; fill: #1c1f24; }
  .ref  { stroke: #d1495b; stroke-width: 1.5; stroke-dasharray: 5 4; }
  .refl { font: 11px system-ui, sans-serif; fill: #d1495b; }
  @media (prefers-color-scheme: dark) {
    .bg   { fill: #16181d; }
    .axis { stroke: #464b55; }
    .grid { stroke: #24272e; }
    .lbl  { fill: #a9b0bb; }
    .ttl  { fill: #f0f2f5; }
  }
</style><rect class="bg" width="900" height="480"/><text class="ttl" x="70" y="24">Escalation: bids over the course of the auction</text><line class="grid" x1="70" y1="425.0" x2="710" y2="425.0"/><text class="lbl" x="60" y="429.0" text-anchor="end">$0</text><line class="grid" x1="70" y1="348.0" x2="710" y2="348.0"/><text class="lbl" x="60" y="352.0" text-anchor="end">$22</text><line class="grid" x1="70" y1="271.0" x2="710" y2="271.0"/><text class="lbl" x="60" y="275.0" text-anchor="end">$45</text><line class="grid" x1="70" y1="194.0" x2="710" y2="194.0"/><text class="lbl" x="60" y="198.0" text-anchor="end">$67</text><line class="grid" x1="70" y1="117.0" x2="710" y2="117.0"/><text class="lbl" x="60" y="121.0" text-anchor="end">$90</text><line class="grid" x1="70" y1="40.0" x2="710" y2="40.0"/><text class="lbl" x="60" y="44.0" text-anchor="end">$112</text><line class="axis" x1="70" y1="425" x2="710" y2="425"/><line class="axis" x1="70" y1="40" x2="70" y2="425"/><text class="lbl" x="70.0" y="445.0" text-anchor="middle">0</text><text class="lbl" x="198.0" y="445.0" text-anchor="middle">4</text><text class="lbl" x="326.0" y="445.0" text-anchor="middle">8</text><text class="lbl" x="454.0" y="445.0" text-anchor="middle">12</text><text class="lbl" x="582.0" y="445.0" text-anchor="middle">16</text><text class="lbl" x="710.0" y="445.0" text-anchor="middle">20</text><text class="lbl" x="390.0" y="466" text-anchor="middle">turn</text><line class="ref" x1="70" y1="81.2" x2="710" y2="81.2"/><text class="refl" x="76" y="75.2">item value $100</text><path d="M102.0,407.8 L230.0,339.1 L358.0,270.3 L486.0,201.6 L614.0,150.0 L710.0,115.6" fill="none" stroke="#4269d0" stroke-width="2" stroke-linejoin="round" opacity="1.0"/><circle cx="102.0" cy="407.8" r="3" fill="#4269d0"/><circle cx="230.0" cy="339.1" r="3" fill="#4269d0"/><circle cx="358.0" cy="270.3" r="3" fill="#4269d0"/><circle cx="486.0" cy="201.6" r="3" fill="#4269d0"/><circle cx="614.0" cy="150.0" r="3" fill="#4269d0"/><circle cx="710.0" cy="115.6" r="3" fill="#4269d0"/><path d="M134.0,390.6 L262.0,321.9 L390.0,253.1 L518.0,184.4" fill="none" stroke="#efb118" stroke-width="2" stroke-linejoin="round" opacity="1.0"/><circle cx="134.0" cy="390.6" r="3" fill="#efb118"/><circle cx="262.0" cy="321.9" r="3" fill="#efb118"/><circle cx="390.0" cy="253.1" r="3" fill="#efb118"/><circle cx="518.0" cy="184.4" r="3" fill="#efb118"/><path d="M166.0,373.4 L294.0,304.7 L422.0,235.9" fill="none" stroke="#ff725c" stroke-width="2" stroke-linejoin="round" opacity="1.0"/><circle cx="166.0" cy="373.4" r="3" fill="#ff725c"/><circle cx="294.0" cy="304.7" r="3" fill="#ff725c"/><circle cx="422.0" cy="235.9" r="3" fill="#ff725c"/><path d="M198.0,356.2 L326.0,287.5 L454.0,218.8 L582.0,167.2 L678.0,132.8" fill="none" stroke="#6cc5b0" stroke-width="2" stroke-linejoin="round" opacity="1.0"/><circle cx="198.0" cy="356.2" r="3" fill="#6cc5b0"/><circle cx="326.0" cy="287.5" r="3" fill="#6cc5b0"/><circle cx="454.0" cy="218.8" r="3" fill="#6cc5b0"/><circle cx="582.0" cy="167.2" r="3" fill="#6cc5b0"/><circle cx="678.0" cy="132.8" r="3" fill="#6cc5b0"/><path d="M102.0,407.8 L230.0,339.1 L358.0,270.3 L486.0,201.6" fill="none" stroke="#efb118" stroke-width="2" stroke-linejoin="round" opacity="0.25"/><path d="M134.0,390.6 L262.0,321.9 L390.0,253.1" fill="none" stroke="#ff725c" stroke-width="2" stroke-linejoin="round" opacity="0.25"/><path d="M166.0,373.4 L294.0,304.7 L422.0,235.9 L550.0,184.4 L646.0,150.0" fill="none" stroke="#6cc5b0" stroke-width="2" stroke-linejoin="round" opacity="0.25"/><path d="M198.0,356.2 L326.0,287.5 L454.0,218.8 L582.0,167.2 L678.0,132.8" fill="none" stroke="#4269d0" stroke-width="2" stroke-linejoin="round" opacity="0.25"/><path d="M102.0,407.8 L230.0,339.1 L358.0,270.3" fill="none" stroke="#ff725c" stroke-width="2" stroke-linejoin="round" opacity="0.25"/><path d="M134.0,390.6 L262.0,321.9 L390.0,253.1 L518.0,201.6 L614.0,167.2 L678.0,132.8" fill="none" stroke="#6cc5b0" stroke-width="2" stroke-linejoin="round" opacity="0.25"/><path d="M166.0,373.4 L294.0,304.7 L422.0,235.9 L550.0,184.4 L646.0,150.0 L710.0,115.6" fill="none" stroke="#4269d0" stroke-width="2" stroke-linejoin="round" opacity="0.25"/><path d="M198.0,356.2 L326.0,287.5 L454.0,218.8" fill="none" stroke="#efb118" stroke-width="2" stroke-linejoin="round" opacity="0.25"/><path d="M102.0,407.8 L230.0,339.1 L358.0,270.3 L486.0,201.6 L614.0,167.2 L678.0,132.8" fill="none" stroke="#6cc5b0" stroke-width="2" stroke-linejoin="round" opacity="0.25"/><path d="M134.0,390.6 L262.0,321.9 L390.0,253.1 L518.0,184.4 L646.0,150.0 L710.0,115.6" fill="none" stroke="#4269d0" stroke-width="2" stroke-linejoin="round" opacity="0.25"/><path d="M166.0,373.4 L294.0,304.7 L422.0,235.9" fill="none" stroke="#efb118" stroke-width="2" stroke-linejoin="round" opacity="0.25"/><path d="M198.0,356.2 L326.0,287.5 L454.0,218.8" fill="none" stroke="#ff725c" stroke-width="2" stroke-linejoin="round" opacity="0.25"/><rect x="724" y="40" width="11" height="11" rx="2" fill="#4269d0"/><text class="lbl" x="742" y="49">ESTP</text><rect x="724" y="60" width="11" height="11" rx="2" fill="#efb118"/><text class="lbl" x="742" y="69">INTJ</text><rect x="724" y="80" width="11" height="11" rx="2" fill="#ff725c"/><text class="lbl" x="742" y="89">INTP</text><rect x="724" y="100" width="11" height="11" rx="2" fill="#6cc5b0"/><text class="lbl" x="742" y="109">ISTJ</text></svg>
