<svg xmlns="http://www.w3.org/2000/svg" viewBox="0 0 900 480" width="900" height="480" role="img" aria-label="Final payoff by agent (mean of 4 games)"><style>
  .bg   { fill: #ffffff; }
  .axis { stroke: #c8ccd4; stroke-width: 1; }
  .grid { stroke: #eceef2; stroke-width: 1; }
  .lbl  { font: 12px system-ui, sans-serif; fill: #4a4f58; }
  .ttl  { font: 600 15px system-ui, sans-serif; fill: #1c1f24; }
  .ref  { stroke: #d1495b; stroke-width: 1.5; stroke-dasharray: 5 4; }
  .refl { font: 11px system-ui, sans-serif; fill: #d1495b; }
  @media (prefers-color-scheme: dark) {
    .bg   { fill: #16181d; }
    .axis { stroke: #464b55; }
    .grid { stroke: #24272e; }
    .lbl  { fill: #a9b0bb; }
    .ttl  { fill: #f0f2f5; }
  }
</style><rect class="bg" width="900" height="480"/><text class="ttl" x="70" y="24">Final payoff by agent (mean of 4 games)</text><line class="grid" x1="70" y1="425.0" x2="710" y2="425.0"/><text class="lbl" x="60" y="429.0" text-anchor="end">$-93</text><line class="grid" x1="70" y1="348.0" x2="710" y2="348.0"/><text class="lbl" x="60" y="352.0" text-anchor="end">$-70</text><line class="grid" x1="70" y1="271.0" x2="710" y2="271.0"/><text class="lbl" x="60" y="275.0" text-anchor="end">$-48</text><line class="grid" x1="70" y1="194.0" x2="710" y2="194.0"/><text class="lbl" x="60" y="198.0" text-anchor="end">$-25</text><line class="grid" x1="70" y1="117.0" x2="710" y2="117.0"/><text class="lbl" x="60" y="121.0" text-anchor="end">$-2</text><line class="grid" x1="70" y1="40.0" x2="710" y2="40.0"/><text class="lbl" x="60" y="44.0" text-anchor="end">$21</text><line class="axis" x1="70" y1="110.1" x2="710" y2="110.1"/><rect x="123.0" y="72.1" width="54.0" height="38.0" rx="3" fill="#3ca951"/><text class="lbl" x="150.0" y="65.1" text-anchor="middle">$11</text><text class="lbl" x="150.0" y="447.0" text-anchor="middle" transform="rotate(-18 150.0 447.0)">ESTP</text><rect x="283.0" y="110.1" width="54.0" height="1.0" rx="3" fill="#3ca951"/><text class="lbl" x="310.0" y="103.1" text-anchor="middle">$0</text><text class="lbl" x="310.0" y="447.0" text-anchor="middle" transform="rotate(-18 310.0 447.0)">INTJ</text><rect x="443.0" y="110.1" width="54.0" height="1.0" rx="3" fill="#3ca951"/><text class="lbl" x="470.0" y="103.1" text-anchor="middle">$0</text><text class="lbl" x="470.0" y="447.0" text-anchor="middle" transform="rotate(-18 470.0 447.0)">INTP</text><rect x="603.0" y="110.1" width="54.0" height="282.8" rx="3" fill="#d1495b"/><text class="lbl" x="630.0" y="407.9" text-anchor="middle">$-84</text><text class="lbl" x="630.0" y="447.0" text-anchor="middle" transform="rotate(-18 630.0 447.0)">ISTJ</text></svg>
